<mxfile host="drawio-plugin" modified="2022-09-29T21:54:42.422Z" agent="5.0 (Windows NT 6.2; Win64; x64) AppleWebKit/537.36 (KHTML, like Gecko) Chrome/89.0.4389.114 Safari/537.36" etag="phZT6NGpSS1NvLP_Jmjs" version="15.5.4" type="embed"><diagram id="3Jm1eH737LQrSvr3LDSa" name="Class Diagram 1"><mxGraphModel dx="2284" dy="2109" grid="1" gridSize="10" guides="1" tooltips="1" connect="1" arrows="1" fold="1" page="1" pageScale="1" pageWidth="827" pageHeight="1169" math="0" shadow="0"><root><mxCell id="0"/><mxCell id="1" parent="0"/><mxCell id="cVeryimdBj6BlBdM6hIP-40" value="" style="rounded=0;whiteSpace=wrap;html=1;fontSize=20;fillColor=#f0a30a;strokeColor=#BD7000;fontColor=#000000;" parent="1" vertex="1"><mxGeometry x="430" y="110" width="250" height="190" as="geometry"/></mxCell><mxCell id="cVeryimdBj6BlBdM6hIP-38" value="" style="rounded=0;whiteSpace=wrap;html=1;fontSize=20;fillColor=#60a917;strokeColor=#2D7600;fontColor=#ffffff;" parent="1" vertex="1"><mxGeometry x="10" y="-20" width="250" height="140" as="geometry"/></mxCell><mxCell id="cVeryimdBj6BlBdM6hIP-36" value="" style="rounded=0;whiteSpace=wrap;html=1;fontSize=20;fillColor=#0050ef;strokeColor=#001DBC;fontColor=#ffffff;" parent="1" vertex="1"><mxGeometry x="-370" y="260" width="730" height="510" as="geometry"/></mxCell><mxCell id="cVeryimdBj6BlBdM6hIP-44" style="edgeStyle=orthogonalEdgeStyle;rounded=0;orthogonalLoop=1;jettySize=auto;html=1;entryX=0;entryY=0.5;entryDx=0;entryDy=0;fontSize=20;" parent="1" source="cVeryimdBj6BlBdM6hIP-1" target="cVeryimdBj6BlBdM6hIP-9" edge="1"><mxGeometry relative="1" as="geometry"/></mxCell><mxCell id="cVeryimdBj6BlBdM6hIP-1" value="game" style="rounded=0;whiteSpace=wrap;html=1;fontSize=24;" parent="1" vertex="1"><mxGeometry x="60" y="30" width="130" height="40" as="geometry"/></mxCell><mxCell id="cVeryimdBj6BlBdM6hIP-34" style="edgeStyle=orthogonalEdgeStyle;rounded=0;orthogonalLoop=1;jettySize=auto;html=1;entryX=0.5;entryY=1;entryDx=0;entryDy=0;fontSize=20;" parent="1" source="cVeryimdBj6BlBdM6hIP-2" target="cVeryimdBj6BlBdM6hIP-1" edge="1"><mxGeometry relative="1" as="geometry"><Array as="points"><mxPoint x="125" y="320"/></Array></mxGeometry></mxCell><mxCell id="cVeryimdBj6BlBdM6hIP-2" value="dev_card" style="rounded=0;whiteSpace=wrap;html=1;fontSize=24;" parent="1" vertex="1"><mxGeometry x="-60" y="300" width="130" height="40" as="geometry"/></mxCell><mxCell id="cVeryimdBj6BlBdM6hIP-33" style="edgeStyle=orthogonalEdgeStyle;rounded=0;orthogonalLoop=1;jettySize=auto;html=1;entryX=0.5;entryY=1;entryDx=0;entryDy=0;fontSize=20;" parent="1" source="cVeryimdBj6BlBdM6hIP-3" target="cVeryimdBj6BlBdM6hIP-1" edge="1"><mxGeometry relative="1" as="geometry"/></mxCell><mxCell id="cVeryimdBj6BlBdM6hIP-3" value="directions" style="rounded=0;whiteSpace=wrap;html=1;fontSize=24;" parent="1" vertex="1"><mxGeometry x="-210" y="340" width="130" height="40" as="geometry"/></mxCell><mxCell id="cVeryimdBj6BlBdM6hIP-49" style="edgeStyle=orthogonalEdgeStyle;rounded=0;orthogonalLoop=1;jettySize=auto;html=1;entryX=0.5;entryY=1;entryDx=0;entryDy=0;fontSize=20;" parent="1" source="cVeryimdBj6BlBdM6hIP-4" target="cVeryimdBj6BlBdM6hIP-1" edge="1"><mxGeometry relative="1" as="geometry"><Array as="points"><mxPoint x="-295" y="460"/><mxPoint x="125" y="460"/></Array></mxGeometry></mxCell><mxCell id="cVeryimdBj6BlBdM6hIP-4" value="indoor_tile" style="rounded=0;whiteSpace=wrap;html=1;fontSize=24;" parent="1" vertex="1"><mxGeometry x="-360" y="600" width="130" height="40" as="geometry"/></mxCell><mxCell id="cVeryimdBj6BlBdM6hIP-48" style="edgeStyle=orthogonalEdgeStyle;rounded=0;orthogonalLoop=1;jettySize=auto;html=1;entryX=0.5;entryY=1;entryDx=0;entryDy=0;fontSize=20;" parent="1" source="cVeryimdBj6BlBdM6hIP-5" target="cVeryimdBj6BlBdM6hIP-1" edge="1"><mxGeometry relative="1" as="geometry"><Array as="points"><mxPoint x="-105" y="460"/><mxPoint x="125" y="460"/></Array></mxGeometry></mxCell><mxCell id="cVeryimdBj6BlBdM6hIP-5" value="outdoor_tile" style="rounded=0;whiteSpace=wrap;html=1;fontSize=24;" parent="1" vertex="1"><mxGeometry x="-170" y="600" width="130" height="40" as="geometry"/></mxCell><mxCell id="cVeryimdBj6BlBdM6hIP-46" style="edgeStyle=orthogonalEdgeStyle;rounded=0;orthogonalLoop=1;jettySize=auto;html=1;entryX=0.5;entryY=1;entryDx=0;entryDy=0;fontSize=20;" parent="1" source="cVeryimdBj6BlBdM6hIP-6" target="cVeryimdBj6BlBdM6hIP-4" edge="1"><mxGeometry relative="1" as="geometry"/></mxCell><mxCell id="cVeryimdBj6BlBdM6hIP-47" style="edgeStyle=orthogonalEdgeStyle;rounded=0;orthogonalLoop=1;jettySize=auto;html=1;entryX=0.5;entryY=1;entryDx=0;entryDy=0;fontSize=20;" parent="1" source="cVeryimdBj6BlBdM6hIP-6" target="cVeryimdBj6BlBdM6hIP-5" edge="1"><mxGeometry relative="1" as="geometry"/></mxCell><mxCell id="cVeryimdBj6BlBdM6hIP-6" value="tile" style="rounded=0;whiteSpace=wrap;html=1;fontSize=24;" parent="1" vertex="1"><mxGeometry x="-260" y="700" width="130" height="40" as="geometry"/></mxCell><mxCell id="cVeryimdBj6BlBdM6hIP-35" style="edgeStyle=orthogonalEdgeStyle;rounded=0;orthogonalLoop=1;jettySize=auto;html=1;entryX=0.5;entryY=1;entryDx=0;entryDy=0;fontSize=20;" parent="1" source="cVeryimdBj6BlBdM6hIP-7" target="cVeryimdBj6BlBdM6hIP-1" edge="1"><mxGeometry relative="1" as="geometry"/></mxCell><mxCell id="cVeryimdBj6BlBdM6hIP-42" style="edgeStyle=orthogonalEdgeStyle;rounded=0;orthogonalLoop=1;jettySize=auto;html=1;entryX=0;entryY=0.5;entryDx=0;entryDy=0;fontSize=20;" parent="1" source="cVeryimdBj6BlBdM6hIP-7" target="cVeryimdBj6BlBdM6hIP-9" edge="1"><mxGeometry relative="1" as="geometry"/></mxCell><mxCell id="cVeryimdBj6BlBdM6hIP-7" value="player" style="rounded=0;whiteSpace=wrap;html=1;fontSize=24;" parent="1" vertex="1"><mxGeometry x="190" y="320" width="130" height="40" as="geometry"/></mxCell><mxCell id="cVeryimdBj6BlBdM6hIP-15" style="edgeStyle=orthogonalEdgeStyle;rounded=0;orthogonalLoop=1;jettySize=auto;html=1;entryX=0.5;entryY=1;entryDx=0;entryDy=0;fontSize=24;" parent="1" source="cVeryimdBj6BlBdM6hIP-8" target="cVeryimdBj6BlBdM6hIP-1" edge="1"><mxGeometry relative="1" as="geometry"><Array as="points"><mxPoint x="155" y="410"/><mxPoint x="125" y="410"/></Array></mxGeometry></mxCell><mxCell id="cVeryimdBj6BlBdM6hIP-8" value="load" style="rounded=0;whiteSpace=wrap;html=1;fontSize=24;" parent="1" vertex="1"><mxGeometry x="90" y="580" width="130" height="40" as="geometry"/></mxCell><mxCell id="cVeryimdBj6BlBdM6hIP-45" style="edgeStyle=orthogonalEdgeStyle;rounded=0;orthogonalLoop=1;jettySize=auto;html=1;fontSize=20;" parent="1" source="cVeryimdBj6BlBdM6hIP-9" target="cVeryimdBj6BlBdM6hIP-11" edge="1"><mxGeometry relative="1" as="geometry"/></mxCell><mxCell id="cVeryimdBj6BlBdM6hIP-9" value="commands" style="rounded=0;whiteSpace=wrap;html=1;fontSize=24;" parent="1" vertex="1"><mxGeometry x="490" y="130" width="130" height="40" as="geometry"/></mxCell><mxCell id="cVeryimdBj6BlBdM6hIP-43" style="edgeStyle=orthogonalEdgeStyle;rounded=0;orthogonalLoop=1;jettySize=auto;html=1;entryX=0.5;entryY=1;entryDx=0;entryDy=0;fontSize=20;" parent="1" source="cVeryimdBj6BlBdM6hIP-10" target="cVeryimdBj6BlBdM6hIP-9" edge="1"><mxGeometry relative="1" as="geometry"/></mxCell><mxCell id="cVeryimdBj6BlBdM6hIP-10" value="graph" style="rounded=0;whiteSpace=wrap;html=1;fontSize=24;" parent="1" vertex="1"><mxGeometry x="490" y="240" width="130" height="40" as="geometry"/></mxCell><mxCell id="cVeryimdBj6BlBdM6hIP-11" value="main" style="rounded=0;whiteSpace=wrap;html=1;fontSize=24;" parent="1" vertex="1"><mxGeometry x="790" y="200" width="130" height="40" as="geometry"/></mxCell><mxCell id="cVeryimdBj6BlBdM6hIP-29" style="edgeStyle=orthogonalEdgeStyle;rounded=0;orthogonalLoop=1;jettySize=auto;html=1;entryX=0.5;entryY=1;entryDx=0;entryDy=0;fontSize=20;" parent="1" source="cVeryimdBj6BlBdM6hIP-19" target="cVeryimdBj6BlBdM6hIP-8" edge="1"><mxGeometry relative="1" as="geometry"/></mxCell><mxCell id="cVeryimdBj6BlBdM6hIP-19" value="&lt;font style=&quot;font-size: 20px;&quot;&gt;DevCards.xlsx&lt;/font&gt;" style="rounded=0;whiteSpace=wrap;html=1;fontSize=24;" parent="1" vertex="1"><mxGeometry y="690" width="130" height="40" as="geometry"/></mxCell><mxCell id="cVeryimdBj6BlBdM6hIP-28" style="edgeStyle=orthogonalEdgeStyle;rounded=0;orthogonalLoop=1;jettySize=auto;html=1;entryX=0.5;entryY=1;entryDx=0;entryDy=0;fontSize=20;" parent="1" source="cVeryimdBj6BlBdM6hIP-20" target="cVeryimdBj6BlBdM6hIP-8" edge="1"><mxGeometry relative="1" as="geometry"/></mxCell><mxCell id="cVeryimdBj6BlBdM6hIP-20" value="&lt;font style=&quot;font-size: 20px;&quot;&gt;Tiles.xlsx&lt;/font&gt;" style="rounded=0;whiteSpace=wrap;html=1;fontSize=24;" parent="1" vertex="1"><mxGeometry x="190" y="690" width="130" height="40" as="geometry"/></mxCell><mxCell id="cVeryimdBj6BlBdM6hIP-37" value="Model" style="rounded=0;whiteSpace=wrap;html=1;fontSize=20;fillColor=#0050ef;fontColor=#ffffff;strokeColor=#001DBC;" parent="1" vertex="1"><mxGeometry x="-370" y="200" width="120" height="60" as="geometry"/></mxCell><mxCell id="cVeryimdBj6BlBdM6hIP-39" value="Controller" style="rounded=0;whiteSpace=wrap;html=1;fontSize=20;fillColor=#60a917;fontColor=#ffffff;strokeColor=#2D7600;" parent="1" vertex="1"><mxGeometry x="10" y="-80" width="120" height="60" as="geometry"/></mxCell><mxCell id="cVeryimdBj6BlBdM6hIP-41" value="View" style="rounded=0;whiteSpace=wrap;html=1;fontSize=20;fillColor=#f0a30a;fontColor=#000000;strokeColor=#BD7000;" parent="1" vertex="1"><mxGeometry x="430" y="50" width="120" height="60" as="geometry"/></mxCell></root></mxGraphModel></diagram></mxfile>